#!OML:ASF F:\VICON\USERDATA\INSTALL\rory3\rory3.ASF
:FULLY-SPECIFIED
:DEGREES
28
root -0.2541509982428488 17.782359919270338 2.2621982192244543 5.085518961907281 1.4760896334697913 0.9152975473217286
lfemur 2.959715559879145 -0.624753804739255 -25.557292690174982
ltibia 36.77688130137921
lfoot -4.372673845647571 -4.914873136325875
ltoes -29.282703746899823
rfemur -47.3960715815322 -1.787468642476194 22.916474335712834
rtibia 93.285345899156
rfoot 0.6259393100371806 -4.220004744041304
rtoes 0.9047022783571643
lowerback 16.06748056577783 -0.816300906036474 -2.7342501643144965
upperback -1.0157963671033459 -1.5016177667639825 1.0155949453324036
thorax -10.059962235886605 -0.5403831688590831 3.1255425682127913
lowerneck -20.098848122340616 -3.4714411871614868 -1.7704959767925539
upperneck 12.635616503803698 -4.9260745224501274 3.7584526243192156
head 7.326357640870751 -2.046165859377989 0.9478840048752187
lclavicle -8.412323278064411e-16 -7.173391412512214e-16
lhumerus -32.94759752643195 -15.401876507598546 96.048273749962
lradius 118.21975026545616
lwrist 38.829177139374195
lhand -24.279327909281022 2.951216265989375
lfingers 7.125020000000057
lthumb 2.206658694823533 32.83157117168633
rclavicle -8.412323278064411e-16 -7.173391412512214e-16
rhumerus -60.85875104404083 10.127015029572373 -99.25324642708156
rradius 110.75251901944151
rwrist -18.347760938712238
rhand -19.244784666053942 35.2735679767102
rfingers 7.125020000000057
rthumb 7.067694487177558 10.062619496611024
29
root -0.2555776853468551 18.012293457194193 3.160757957128075 5.346288262045119 0.1498651904940279 0.41252128064938365
lfemur 6.578976989403628 -0.40826047135082355 -25.443955284830636
ltibia 31.268688156806142
lfoot 5.119021753319263 -8.357133215067453
ltoes -30.14742924953911
rfemur -47.36315561868848 -0.11057031167665521 23.63821243251989
rtibia 83.09726865045144
rfoot 0.15005013453689875 -2.708092357588793
rtoes -2.6216144017869016
lowerback 15.172959206561643 -0.9840496660735049 -2.4360101841844903
upperback -1.2588097062701509 -1.634426592256148 1.3478335341612593
thorax -9.877909045526014 -0.6099530727907506 3.284955648004341
lowerneck -19.90595032929759 -3.205059245930907 -1.8308123284946518
upperneck 13.290700252003091 -4.527096547376502 3.49485810140405
head 7.486875491751586 -1.8787283672672423 0.9161512205912453
lclavicle -9.678242882473493e-16 -8.153596560827947e-16
lhumerus -33.399010052322936 -14.857912725484033 95.26832096916378
lradius 118.56046111705473
lwrist 38.756048902569546
lhand -24.158428123908863 2.9630393773651793
lfingers 7.125020000000057
lthumb 2.3233840650677724 32.83932176119387
rclavicle -9.678242882473493e-16 -8.153596560827947e-16
rhumerus -62.60156512094788 9.440521317104508 -98.62276956384316
rradius 110.71718891701583
rwrist -18.02707211806274
rhand -19.167122213282433 35.64471482388587
rfingers 7.125020000000057
rthumb 7.142487966151189 10.195039633242974
30
root -0.242136321041179 18.22898764999798 4.591884670208557 5.6080048660256345 -1.1488669168464227 0.08125661591437483
lfemur 10.08625780760509 -0.5620248113540773 -25.4370292189809
ltibia 27.705734726911942
lfoot 14.214316782296365 -11.381151053050209
ltoes -27.81502671391834
rfemur -46.864220549066744 1.460642816017971 24.351206742197583
rtibia 72.26230558305771
rfoot -0.03121243884311431 -1.3686075775258306
rtoes -6.588704810116424
lowerback 14.486454762475823 -1.1094637763814168 -2.147714559297805
upperback -1.4689154067763481 -1.717124533057779 1.623090499957835
thorax -9.747010304800927 -0.6565530620592196 3.4297946409534044
lowerneck -19.84567782182604 -3.0045588466764297 -1.891118393089217
upperneck 13.903685019405426 -4.216045299268775 3.287429793368884
head 7.665383753168538 -1.7496366245642871 0.8896900187197815
lclavicle -8.241415132464071e-16 -7.04105661857009e-16
lhumerus -33.76862812051812 -14.529613975837698 94.66412453314207
lradius 118.91626525852442
lwrist 38.36422959264682
lhand -24.166893985716854 2.8112139459817715
lfingers 7.125020000000057
lthumb 2.3151947934731716 32.68347555307588
rclavicle -8.241415132464071e-16 -7.04105661857009e-16
rhumerus -63.84583559213082 8.797337181135468 -97.95857668197884
rradius 111.01310411385117
rwrist -17.42812279953651
rhand -19.159504063468766 35.7931054115844
rfingers 7.125020000000057
rthumb 7.149669389591527 10.731105178767146
31
root -0.23175724981464169 18.433726502916166 6.271999604119977 5.9954954496262465 -1.9691430606860014 -0.03726361177111226
lfemur 12.711776166831452 -1.291750510995506 -25.632764496398693
ltibia 25.692669819223664
lfoot 22.423762104506178 -13.979523733008744
ltoes -24.42222099505823
rfemur -45.01427035493186 2.5850183840809944 24.939538539571856
rtibia 60.38791297623095
rfoot 0.4239890296162647 -0.21454106804477924
rtoes -10.361003993433199
lowerback 13.939994422358062 -1.1915436340344376 -1.8339053768074958
upperback -1.65603040628875 -1.7557579465253994 1.786625004975588
thorax -9.625552620267634 -0.6863268284933878 3.4790786897739103
lowerneck -19.851061038789503 -2.9114188075608456 -1.970929251867399
upperneck 14.367028464315561 -4.04214761279758 3.1618682715869433
head 7.818082898276113 -1.6845533028526951 0.8746008559784254
lclavicle -4.63631024744965e-16 -4.2496134448821107e-16
lhumerus -34.388455779854176 -14.47272050923088 94.38156647540269
lradius 120.24431137381622
lwrist 38.262571929946155
lhand -24.148784870224354 2.173457293499105
lfingers 7.125020000000058
lthumb 2.332702126764567 32.0486008853432
rclavicle -4.63631024744965e-16 -4.2496134448821107e-16
rhumerus -64.98094680202695 8.754243098241318 -97.42790403018026
rradius 112.67004260115539
rwrist -16.884150148104712
rhand -19.338616058926505 35.46704033245146
rfingers 7.125020000000058
rthumb 6.97690454793994 11.155347997621817
